<svg xmlns="http://www.w3.org/2000/svg" fill="none" viewBox="0 0 64 64">
  <path fill="#fff" d="M54.18 12.04A52.78 52.78 0 0 0 41.15 8a.2.2 0 0 0-.2.1 33 33 0 0 0-1.63 3.33 48.73 48.73 0 0 0-14.63 0 33.72 33.72 0 0 0-1.65-3.33.2.2 0 0 0-.2-.1A52.63 52.63 0 0 0 9.8 12.04a.19.19 0 0 0-.1.08C1.43 24.52-.84 36.6.27 48.54c.01.06.04.12.09.15a53.07 53.07 0 0 0 15.98 8.08.2.2 0 0 0 .22-.07 37.94 37.94 0 0 0 3.27-5.32.2.2 0 0 0-.1-.28 34.95 34.95 0 0 1-5-2.38.2.2 0 0 1-.02-.34l1-.78a.2.2 0 0 1 .2-.03 37.85 37.85 0 0 0 32.16 0 .2.2 0 0 1 .21.03c.32.26.66.53 1 .78a.2.2 0 0 1-.02.34 32.8 32.8 0 0 1-5 2.38.2.2 0 0 0-.1.28 42.6 42.6 0 0 0 3.26 5.32c.05.07.14.1.22.07a52.9 52.9 0 0 0 16.01-8.08.2.2 0 0 0 .08-.14c1.34-13.8-2.23-25.8-9.46-36.43a.16.16 0 0 0-.08-.08Zm-32.8 29.23c-3.15 0-5.74-2.9-5.74-6.45 0-3.55 2.54-6.45 5.75-6.45 3.23 0 5.8 2.92 5.75 6.45 0 3.56-2.55 6.45-5.75 6.45Zm21.27 0c-3.15 0-5.75-2.9-5.75-6.45 0-3.55 2.55-6.45 5.75-6.45 3.23 0 5.8 2.92 5.75 6.45 0 3.56-2.52 6.45-5.75 6.45Z"/>
</svg>