<svg xmlns="http://www.w3.org/2000/svg" fill="none" viewBox="0 0 64 64">
  <path fill="#fff" d="M32 5.77c8.54 0 9.56.03 12.93.18 3.12.14 4.81.67 5.94 1.1a9.92 9.92 0 0 1 3.68 2.4 9.92 9.92 0 0 1 2.4 3.68 17.7 17.7 0 0 1 1.1 5.94c.15 3.37.18 4.39.18 12.93s-.03 9.56-.18 12.93a17.7 17.7 0 0 1-1.1 5.94 9.91 9.91 0 0 1-2.4 3.68 9.91 9.91 0 0 1-3.68 2.4 17.7 17.7 0 0 1-5.94 1.1c-3.37.15-4.39.18-12.93.18-8.55 0-9.56-.03-12.93-.18a17.7 17.7 0 0 1-5.94-1.1 9.91 9.91 0 0 1-3.68-2.4 9.91 9.91 0 0 1-2.4-3.68 17.7 17.7 0 0 1-1.1-5.94c-.15-3.37-.18-4.39-.18-12.93s.03-9.56.18-12.93a17.7 17.7 0 0 1 1.1-5.94 9.91 9.91 0 0 1 2.4-3.68 9.91 9.91 0 0 1 3.68-2.4c1.12-.43 2.82-.96 5.94-1.1 3.37-.15 4.39-.18 12.93-.18ZM32 0a227 227 0 0 0-13.2.2c-3.4.15-5.73.69-7.76 1.48-2.1.82-3.89 1.91-5.67 3.7a15.69 15.69 0 0 0-3.69 5.66A23.49 23.49 0 0 0 .19 18.8C.04 22.22 0 23.3 0 32s.04 9.78.2 13.2c.15 3.4.69 5.73 1.48 7.76.82 2.1 1.91 3.89 3.7 5.67a15.69 15.69 0 0 0 5.66 3.69c2.03.8 4.36 1.33 7.77 1.49 3.41.15 4.5.19 13.19.19 8.7 0 9.78-.04 13.2-.2 3.4-.15 5.73-.69 7.76-1.48 2.1-.82 3.89-1.91 5.67-3.7a15.69 15.69 0 0 0 3.69-5.66c.8-2.03 1.33-4.36 1.49-7.77.15-3.4.19-4.5.19-13.19 0-8.7-.04-9.78-.2-13.2-.15-3.4-.69-5.73-1.48-7.76a15.69 15.69 0 0 0-3.7-5.67 15.68 15.68 0 0 0-5.66-3.69A23.49 23.49 0 0 0 45.2.19 227 227 0 0 0 32 0Zm0 15.57a16.43 16.43 0 1 0 0 32.86 16.43 16.43 0 0 0 0-32.86Zm0 27.1a10.67 10.67 0 1 1 0-21.34 10.67 10.67 0 0 1 0 21.34Zm20.92-27.75a3.84 3.84 0 1 1-7.68 0 3.84 3.84 0 0 1 7.68 0Z"/>
</svg>