<svg xmlns="http://www.w3.org/2000/svg" width="64" height="64" fill="none"><g clip-path="url(#a)"><path fill="#fff" fill-rule="evenodd" d="M64.064 32c0 17.673-14.326 32-32 32-17.673 0-32-14.327-32-32 0-17.673 14.327-32 32-32 17.674 0 32 14.327 32 32Zm-30.848-8.384c-3.113 1.295-9.333 3.974-18.662 8.039-1.515.602-2.308 1.191-2.38 1.768-.123.974 1.097 1.357 2.758 1.88.226.07.46.144.7.222 1.633.531 3.831 1.152 4.974 1.177 1.036.022 2.193-.405 3.47-1.282 8.716-5.883 13.215-8.857 13.498-8.921.2-.046.475-.102.662.064.188.166.17.481.15.566-.122.515-4.909 4.965-7.386 7.268a87.305 87.305 0 0 0-1.432 1.344c-.251.26-.507.507-.752.744-1.518 1.463-2.657 2.56.063 4.352 1.306.861 2.352 1.574 3.395 2.284 1.14.776 2.276 1.55 3.746 2.513.374.246.732.501 1.08.75 1.326.945 2.518 1.794 3.99 1.658.854-.078 1.738-.882 2.186-3.28 1.06-5.668 3.144-17.947 3.626-23.007a5.644 5.644 0 0 0-.054-1.26c-.042-.249-.132-.604-.455-.866-.384-.311-.976-.377-1.24-.372-1.204.021-3.05.663-11.937 4.36Z" clip-rule="evenodd"/></g><defs><clipPath id="a"><path fill="#fff" d="M0 0h64v64H0z"/></clipPath></defs></svg>