<svg xmlns="http://www.w3.org/2000/svg" fill="none" viewBox="0 0 64 64">
  <path fill="#fff" fill-rule="evenodd" d="M4.5 4.5C0 9 0 16.24 0 30.72v2.56C0 47.76 0 55 4.5 59.5S16.24 64 30.72 64h2.56C47.76 64 55 64 59.5 59.5S64 47.76 64 33.28v-2.56C64 16.24 64 9 59.5 4.5S47.76 0 33.28 0h-2.56C16.24 0 9 0 4.5 4.5Zm6.3 14.97c.35 16.64 8.67 26.64 23.25 26.64h.83v-9.52c5.36.53 9.41 4.45 11.04 9.52h7.57a21.05 21.05 0 0 0-10.96-13.36c3.42-1.98 8.22-6.78 9.36-13.28h-6.88C43.52 24.75 39.1 29.55 34.88 30V19.47H28v18.45c-4.27-1.07-9.65-6.24-9.9-18.45h-7.3Z" clip-rule="evenodd"/>
</svg>