<?xml version="1.0" standalone="no"?>
<!DOCTYPE svg PUBLIC "-//W3C//DTD SVG 20010904//EN"
 "http://www.w3.org/TR/2001/REC-SVG-20010904/DTD/svg10.dtd">
<svg version="1.0" xmlns="http://www.w3.org/2000/svg"
 width="256.000000pt" height="256.000000pt" viewBox="0 0 256.000000 256.000000"
 preserveAspectRatio="xMidYMid meet">
<metadata>
Created by potrace 1.14, written by Peter Selinger 2001-2017
</metadata>
<g transform="translate(0.000000,256.000000) scale(0.100000,-0.100000)"
fill="#000000" stroke="none">
<path d="M1230 2455 c-233 -22 -347 -44 -420 -79 -86 -41 -84 -40 -75 -26 15
24 -29 -8 -65 -47 l-35 -38 40 38 c58 53 66 46 12 -12 -49 -53 -78 -127 -92
-234 -5 -46 -10 -57 -22 -53 -8 3 -27 9 -41 12 -43 11 -47 19 -50 93 -3 70 -3
71 37 110 22 21 42 37 44 35 2 -2 12 5 22 16 10 11 24 20 32 20 7 0 13 5 13
12 0 6 3 9 6 5 7 -7 64 42 64 55 0 5 14 22 31 39 17 17 29 33 26 36 -3 3 -41
-14 -85 -37 -279 -149 -503 -412 -602 -708 -50 -152 -64 -242 -64 -412 0 -165
12 -248 59 -395 111 -350 389 -649 734 -789 72 -29 71 -29 70 -19 -4 26 3 54
19 73 l18 23 24 -39 c13 -22 30 -51 36 -65 11 -24 34 -48 34 -35 0 3 -14 40
-30 82 -17 42 -28 79 -25 82 11 11 49 -36 82 -103 40 -79 41 -80 49 -73 3 4
-2 21 -11 39 -10 17 -18 41 -20 53 -1 12 -6 33 -10 47 -9 36 13 49 35 21 9
-11 30 -54 46 -96 21 -54 34 -76 47 -76 9 0 17 6 17 13 0 6 5 4 11 -5 5 -10
15 -18 20 -18 6 0 3 10 -5 22 -9 12 -16 28 -16 36 0 22 37 -5 44 -32 5 -22 11
-25 51 -24 25 0 45 2 45 4 0 1 -4 14 -10 29 -5 14 -6 24 -1 21 5 -4 11 0 14 6
6 19 37 -9 37 -33 0 -13 7 -19 21 -19 11 0 18 4 14 9 -9 15 30 23 58 12 32
-12 99 -3 110 16 4 7 13 13 18 13 6 0 7 -5 3 -12 -4 -7 -3 -8 5 -4 7 5 23 9
37 11 41 4 41 0 -4 135 -3 10 -2 12 5 5 6 -5 19 -37 28 -70 10 -33 19 -55 21
-50 2 6 -5 37 -15 70 -17 53 -17 63 -5 87 35 68 0 203 -71 273 -23 22 -54 50
-70 63 -23 19 -26 25 -14 33 19 12 3 12 -20 0 -11 -6 -22 -6 -32 1 -11 8 -10
9 6 4 19 -6 19 -6 1 9 -10 8 -23 16 -28 17 -5 2 -10 26 -11 53 l-2 50 125 5
125 6 -150 3 c-95 2 -163 7 -185 16 -33 13 -28 14 80 16 63 1 93 4 65 6 -185
11 -219 15 -200 26 10 5 99 14 198 18 98 4 181 10 184 12 9 9 -322 -4 -379
-15 -51 -9 -59 -8 -86 10 -16 12 -35 29 -43 39 -7 10 -1 7 14 -6 43 -39 42
-17 -1 25 -38 37 -40 41 -37 94 3 48 2 52 -9 31 -12 -21 -13 -19 -12 26 1 28
9 59 20 75 10 15 15 32 11 37 -7 12 7 42 32 67 10 10 19 25 19 33 1 9 26 59
56 111 54 94 55 95 127 131 l73 36 -85 -5 c-99 -5 -153 9 -169 44 -15 33 11
70 59 83 52 13 362 35 371 26 4 -3 7 -34 7 -67 -1 -33 2 -51 6 -41 11 28 10
82 -2 104 -10 19 -18 20 -115 15 -57 -2 -104 -3 -104 -1 0 9 67 40 105 50 38
9 40 12 34 40 -6 29 -7 29 -8 4 -1 -19 -8 -28 -23 -32 -12 -4 -23 -5 -24 -4
-6 7 30 76 37 71 26 -16 -6 124 -41 176 -12 19 -38 47 -58 62 -34 27 -38 28
-151 25 -100 -2 -122 -6 -161 -26 -25 -13 -57 -24 -72 -23 -20 0 -28 -5 -31
-21 -4 -21 -4 -21 -6 1 0 13 -5 20 -11 17 -15 -9 -12 12 3 27 10 8 11 24 6 52
-4 23 -6 44 -4 47 2 3 5 23 6 45 2 41 52 134 73 134 6 0 4 5 -4 10 -12 7 -7
12 20 24 26 11 30 16 15 17 -12 0 -6 5 15 10 128 32 464 32 625 1 61 -12 121
-22 135 -22 22 1 23 2 7 11 -10 6 -39 14 -65 18 -26 5 -90 16 -142 25 -52 10
-106 19 -120 21 -69 12 -220 12 -350 0z m-739 -238 c-10 -9 -11 -8 -5 6 3 10
9 15 12 12 3 -3 0 -11 -7 -18z m968 -202 c14 -14 22 -28 18 -31 -4 -4 -42 -2
-85 4 -42 7 -93 12 -113 12 -52 0 -100 11 -93 21 3 5 31 9 62 10 31 0 75 4 97
9 53 11 85 4 114 -25z m-434 -65 c-4 -17 -9 -29 -12 -26 -3 2 -2 19 2 36 4 17
9 29 12 26 3 -2 2 -19 -2 -36z m-525 20 c0 -5 -2 -10 -4 -10 -3 0 -8 5 -11 10
-3 6 -1 10 4 10 6 0 11 -4 11 -10z m925 -29 c49 -16 50 -17 53 -60 6 -76 -43
-172 -96 -192 -35 -13 -186 -14 -208 0 -18 10 -18 10 -1 11 10 0 15 5 12 10
-4 6 -9 34 -12 63 -7 74 -21 115 -44 122 -23 8 -24 14 -4 42 11 15 29 23 58
26 68 7 188 -4 242 -22z m-430 -1 c-3 -5 -6 -78 -7 -162 0 -84 -2 -147 -5
-140 -3 6 -8 10 -13 7 -5 -3 -15 2 -23 10 -18 18 -15 89 9 200 20 92 22 95 34
95 6 0 8 -4 5 -10z m12 -217 c-2 -32 -3 -8 -3 52 0 61 1 87 3 58 2 -29 2 -78
0 -110z m484 58 c-31 -60 -44 -60 -16 1 14 29 26 64 27 78 1 20 2 18 5 -7 3
-19 -4 -47 -16 -72z m-419 -43 c9 -27 14 -48 12 -48 -11 0 -33 51 -38 90 -7
49 1 37 26 -42z m-681 -39 c15 -10 31 -19 37 -19 5 0 21 -9 35 -20 25 -20 25
-21 10 -52 -30 -59 -22 -103 41 -235 l59 -123 -19 -42 c-18 -39 -19 -41 -24
-18 -9 38 -119 260 -130 260 -5 0 -19 14 -31 31 l-22 31 24 -7 c21 -7 22 -6 7
8 -8 9 -18 35 -22 58 -4 24 -12 49 -18 56 -8 10 -5 13 13 13 22 0 22 2 -8 21
-23 15 -33 29 -33 46 0 22 3 24 27 18 15 -3 39 -15 54 -26z m233 -224 c3 -8 1
-15 -4 -15 -6 0 -10 7 -10 15 0 8 2 15 4 15 2 0 6 -7 10 -15z m122 -65 c40 0
76 -4 79 -10 3 -5 12 -10 18 -10 7 0 3 6 -8 12 -19 11 -19 11 0 19 51 20 58
13 52 -47 -6 -63 -13 -73 -61 -99 -32 -17 -36 -18 -53 -3 -19 16 -156 31 -147
16 3 -5 -6 -3 -19 3 -26 12 -50 50 -52 84 -1 11 -5 30 -9 43 -7 21 -5 23 16
20 20 -3 23 -8 21 -42 -2 -33 -1 -36 12 -26 9 7 18 10 22 6 3 -3 2 -6 -3 -6
-5 0 -10 -16 -11 -36 -1 -35 -1 -35 18 -15 23 25 24 45 3 66 -11 10 -14 24
-10 41 l7 25 26 -21 c21 -16 40 -20 99 -20z m-450 -15 c-3 -8 0 -15 7 -15 16
0 19 -92 3 -102 -8 -5 -7 -8 2 -8 6 0 12 -9 12 -20 0 -17 2 -18 13 -8 8 7 12
22 9 33 -4 16 -2 18 8 8 11 -10 11 -17 0 -38 -7 -14 -20 -25 -29 -25 -12 -1
-11 -3 4 -12 29 -16 29 -16 16 -31 -15 -19 -62 -10 -82 16 -13 16 -15 26 -6
44 11 26 23 29 30 11 4 -9 6 -8 6 3 1 8 -5 21 -11 27 -10 10 -10 15 2 22 11 7
12 13 2 35 -13 28 -6 75 10 75 6 0 8 -7 4 -15z m-66 -69 c0 -3 -4 -8 -10 -11
-5 -3 -10 -1 -10 4 0 6 5 11 10 11 6 0 10 -2 10 -4z m-160 -26 c0 -5 -2 -10
-4 -10 -3 0 -8 5 -11 10 -3 6 -1 10 4 10 6 0 11 -4 11 -10z m13 -57 c-7 -2
-19 -2 -25 0 -7 3 -2 5 12 5 14 0 19 -2 13 -5z m678 -14 c56 -14 85 -17 87
-10 2 6 8 11 14 11 6 0 9 -32 7 -85 -3 -63 -8 -89 -21 -101 -17 -17 -71 -27
-62 -12 13 21 -16 5 -30 -17 -25 -38 -29 -77 -12 -110 9 -16 16 -35 16 -41 0
-14 63 -206 85 -257 19 -46 16 -53 -60 -132 -26 -27 -40 -41 -31 -29 15 19 15
22 -5 40 -60 54 -167 326 -176 446 -3 43 -9 75 -13 73 -4 -3 -10 5 -14 18 -9
34 -7 107 3 107 5 0 11 11 15 23 11 47 62 94 102 96 6 1 49 -8 95 -20z m-671
-24 c10 -13 9 -15 -8 -15 -22 0 -36 13 -25 24 10 10 20 7 33 -9z m292 -57 c-9
-9 -15 -9 -24 0 -9 9 -9 12 0 12 7 0 11 3 11 8 -4 26 4 35 13 14 8 -17 8 -26
0 -34z m-91 -27 c-12 -22 -37 -30 -27 -8 3 6 9 20 12 30 4 12 10 15 16 9 6 -6
6 -17 -1 -31z m-213 -17 l-4 -29 -12 28 c-13 31 -7 56 10 39 5 -5 8 -22 6 -38z
m16 -53 c3 -5 -1 -12 -10 -15 -20 -8 -29 -1 -19 13 8 13 22 14 29 2z m817 -13
c0 -7 3 -24 6 -38 3 -14 6 -105 7 -203 1 -166 0 -180 -18 -193 -23 -17 -25
-13 -88 165 -37 105 -43 151 -29 209 1 1 9 2 19 2 10 0 33 16 52 35 36 37 50
43 51 23z m-829 -80 c3 -20 0 -28 -10 -28 -9 0 -13 3 -9 6 3 3 2 16 -3 28 -6
16 -5 23 5 23 7 0 15 -13 17 -29z m1304 -270 c18 -9 31 -26 39 -53 6 -22 29
-74 50 -115 37 -71 39 -81 43 -185 2 -60 8 -112 12 -115 4 -3 4 -14 -1 -25 -7
-18 -8 -18 -8 -2 -1 10 -25 42 -53 71 -71 70 -76 77 -130 181 -47 91 -52 115
-49 234 1 33 2 33 36 28 19 -3 47 -12 61 -19z m121 -123 c10 -8 34 -25 53 -38
19 -12 34 -26 33 -30 -2 -4 6 -16 18 -28 35 -35 13 -33 -43 5 -29 20 -58 36
-65 36 -7 0 -13 5 -13 10 0 14 5 13 51 -11 23 -11 43 -18 46 -15 6 6 -72 46
-91 46 -9 0 -20 9 -26 20 -9 16 -8 20 5 20 8 0 23 -7 32 -15z m-995 -57 c-8
-8 -9 -4 -5 13 4 13 8 18 11 10 2 -7 -1 -18 -6 -23z m1091 -68 c37 -21 62 -61
53 -86 -3 -8 -1 -16 4 -19 6 -4 10 -10 10 -16 0 -12 -92 34 -109 55 -17 21
-13 20 38 -5 60 -29 64 -16 4 14 -26 14 -56 34 -66 45 l-19 20 39 -18 c57 -27
95 -34 43 -7 -62 31 -100 57 -100 69 0 5 15 1 33 -11 17 -11 49 -30 70 -41z
m-50 -114 c-8 -13 -23 16 -22 44 1 24 1 24 14 -5 7 -16 11 -34 8 -39z m88 -28
c3 -5 9 -9 13 -9 3 1 6 -1 6 -4 0 -3 -3 -4 -7 -4 -13 3 -83 49 -83 54 0 8 64
-26 71 -37z m-73 -12 c3 -43 -24 -59 -34 -19 -5 19 -2 30 11 40 11 7 19 13 20
13 0 0 2 -15 3 -34z m82 -38 c0 -12 -48 23 -54 40 -3 7 8 2 24 -10 17 -12 30
-26 30 -30z m-470 -17 c5 -11 7 -27 3 -36 -5 -15 -8 -14 -18 6 -7 13 -11 29
-8 36 7 17 10 16 23 -6z m406 -18 c-1 -43 -22 -56 -32 -18 -5 19 -1 30 12 40
11 8 19 15 20 15 1 0 1 -16 0 -37z m42 12 c-3 -3 -9 2 -12 12 -6 14 -5 15 5 6
7 -7 10 -15 7 -18z m-508 -39 c0 -12 -5 -7 -19 24 -11 24 -11 24 3 6 9 -11 16
-24 16 -30z m-95 -37 c22 -41 11 -36 -14 7 -12 19 -16 32 -11 29 6 -3 17 -19
25 -36z m600 10 c7 -22 4 -29 -17 -33 -7 -1 -19 -5 -26 -10 -7 -4 -16 -6 -19
-3 -9 10 8 47 23 47 8 0 14 5 14 10 0 18 19 10 25 -11z m-423 -33 c4 -22 2
-24 -13 -16 -14 8 -17 20 -10 48 3 11 19 -12 23 -32z m39 14 c0 10 3 8 8 -5
10 -25 -11 -51 -21 -26 -4 9 -7 23 -7 31 -1 13 0 13 9 0 9 -13 10 -13 11 0z
m306 -27 c-3 -10 -5 -4 -5 12 0 17 2 24 5 18 2 -7 2 -21 0 -30z m100 -18 c8
-21 -1 -28 -26 -20 -12 4 -18 12 -14 21 7 19 32 18 40 -1z m-57 -9 c0 -16 -18
-31 -27 -22 -8 8 5 36 17 36 5 0 10 -6 10 -14z m-314 -54 c-18 -16 -18 -16 -6
6 6 13 14 21 18 18 3 -4 -2 -14 -12 -24z"/>
<path d="M1140 1925 c-7 -9 -11 -17 -9 -20 3 -2 10 5 17 15 14 24 10 26 -8 5z"/>
<path d="M1339 1783 c-13 -16 -12 -17 4 -4 9 7 17 15 17 17 0 8 -8 3 -21 -13z"/>
<path d="M1284 1718 l-29 -33 33 29 c17 17 32 31 32 33 0 8 -8 1 -36 -29z"/>
<path d="M580 1330 c0 -5 5 -10 11 -10 5 0 7 5 4 10 -3 6 -8 10 -11 10 -2 0
-4 -4 -4 -10z"/>
<path d="M2141 2188 c0 -18 4 -51 8 -73 8 -37 9 -35 10 27 0 37 -3 70 -9 73
-6 4 -10 -7 -9 -27z"/>
<path d="M1630 2091 c-5 -11 -12 -57 -14 -103 -3 -60 -2 -69 4 -33 5 39 7 43
8 18 2 -37 3 -37 52 -22 19 6 78 14 130 19 l95 9 -100 -5 c-55 -2 -114 -7
-131 -10 -32 -6 -32 -6 -39 44 -9 70 4 92 57 92 48 0 44 -9 -17 -39 -22 -11
-33 -20 -25 -20 8 0 39 13 68 28 51 28 55 28 103 16 28 -8 62 -21 75 -30 14
-9 28 -14 31 -12 9 10 -45 38 -99 53 -29 7 -83 14 -120 14 -56 0 -69 -3 -78
-19z"/>
<path d="M1655 2080 c4 -6 11 -8 16 -5 14 9 11 15 -7 15 -8 0 -12 -5 -9 -10z"/>
<path d="M1837 2050 c3 -11 7 -20 9 -20 2 0 4 9 4 20 0 11 -4 20 -9 20 -5 0
-7 -9 -4 -20z"/>
<path d="M2141 2044 c0 -11 3 -14 6 -6 3 7 2 16 -1 19 -3 4 -6 -2 -5 -13z"/>
<path d="M1694 1936 c-17 -8 -34 -22 -38 -32 -7 -17 -6 -17 13 0 11 10 39 24
63 31 31 10 36 14 18 14 -14 0 -39 -6 -56 -13z"/>
<path d="M1611 1818 c-1 -16 3 -28 7 -28 10 0 35 -51 28 -57 -8 -9 -26 8 -26
25 0 14 -1 14 -12 0 -7 -9 -22 -18 -33 -21 -13 -3 -8 -5 13 -6 18 0 52 -10 74
-21 23 -11 47 -20 52 -20 6 1 -6 9 -27 19 -20 9 -35 20 -31 23 3 3 -3 21 -13
40 -10 18 -21 42 -24 53 -6 17 -7 15 -8 -7z"/>
<path d="M1670 1761 c0 -6 4 -13 10 -16 6 -3 7 1 4 9 -7 18 -14 21 -14 7z"/>
<path d="M1485 1715 c-39 -18 -31 -18 25 -1 25 8 36 15 25 15 -11 0 -33 -6
-50 -14z"/>
<path d="M1278 1628 c-16 -5 -28 -14 -28 -20 0 -7 5 -6 14 2 8 6 36 15 63 20
41 6 43 8 13 8 -19 0 -47 -4 -62 -10z"/>
<path d="M1305 1596 c-18 -13 -17 -14 8 -31 23 -14 39 -16 101 -10 l73 6 27
-31 c31 -38 35 -25 4 15 -43 55 -167 85 -213 51z"/>
<path d="M1710 1603 c-21 -8 -60 -44 -60 -56 0 -6 8 -3 18 6 11 10 37 18 63
18 l44 2 -40 7 c-42 7 -39 9 30 23 12 3 8 5 -10 5 -16 0 -37 -2 -45 -5z"/>
<path d="M1270 1576 c0 -2 8 -10 18 -17 15 -13 16 -12 3 4 -13 16 -21 21 -21
13z"/>
<path d="M1616 1525 c-7 -28 7 -133 25 -184 17 -49 20 -31 4 23 -8 27 -16 80
-17 117 -1 38 -3 69 -4 69 -1 0 -5 -11 -8 -25z"/>
<path d="M1412 1440 c0 -14 2 -19 5 -12 2 6 2 18 0 25 -3 6 -5 1 -5 -13z"/>
<path d="M1451 1433 c-1 -12 4 -25 9 -28 12 -7 12 2 0 30 -8 19 -9 19 -9 -2z"/>
<path d="M1230 1300 c-6 -11 -8 -20 -6 -20 3 0 10 9 16 20 6 11 8 20 6 20 -3
0 -10 -9 -16 -20z"/>
<path d="M1552 1280 c0 -14 2 -19 5 -12 2 6 2 18 0 25 -3 6 -5 1 -5 -13z"/>
<path d="M1660 1296 c0 -11 30 -66 36 -66 2 0 -3 15 -12 33 -19 36 -24 44 -24
33z"/>
<path d="M1352 1250 c0 -14 2 -19 5 -12 2 6 2 18 0 25 -3 6 -5 1 -5 -13z"/>
<path d="M1297 1254 c-4 -4 -7 -17 -7 -28 1 -19 1 -20 11 -3 11 19 8 43 -4 31z"/>
<path d="M1460 1240 c-6 -11 -7 -20 -2 -20 6 0 12 9 15 20 3 11 3 20 1 20 -2
0 -8 -9 -14 -20z"/>
<path d="M1622 1220 c0 -14 2 -19 5 -12 2 6 2 18 0 25 -3 6 -5 1 -5 -13z"/>
<path d="M1756 1227 c3 -10 9 -15 12 -12 3 3 0 11 -7 18 -10 9 -11 8 -5 -6z"/>
<path d="M1226 1213 c-6 -14 -5 -15 5 -6 7 7 10 15 7 18 -3 3 -9 -2 -12 -12z"/>
<path d="M1510 1200 c0 -11 2 -20 4 -20 2 0 6 9 9 20 3 11 1 20 -4 20 -5 0 -9
-9 -9 -20z"/>
<path d="M1563 1205 c-3 -9 -3 -18 -1 -21 3 -3 8 4 11 16 6 23 -1 27 -10 5z"/>
<path d="M1741 1193 c7 -12 15 -20 18 -17 3 2 -3 12 -13 22 -17 16 -18 16 -5
-5z"/>
<path d="M1376 1184 c-4 -9 -4 -19 -1 -22 2 -3 7 3 11 12 4 9 4 19 1 22 -2 3
-7 -3 -11 -12z"/>
<path d="M1176 1175 c-3 -8 -1 -15 4 -15 6 0 10 7 10 15 0 8 -2 15 -4 15 -2 0
-6 -7 -10 -15z"/>
<path d="M1262 1155 c0 -16 2 -22 5 -12 2 9 2 23 0 30 -3 6 -5 -1 -5 -18z"/>
<path d="M1650 1175 c0 -5 5 -17 10 -25 5 -8 10 -10 10 -5 0 6 -5 17 -10 25
-5 8 -10 11 -10 5z"/>
<path d="M1318 1164 c-5 -4 -8 -19 -8 -33 0 -18 3 -22 11 -14 6 6 9 21 7 33
-1 12 -6 18 -10 14z"/>
<path d="M1446 1144 c-4 -9 -4 -19 -1 -22 2 -3 7 3 11 12 4 9 4 19 1 22 -2 3
-7 -3 -11 -12z"/>
<path d="M1542 1120 c0 -19 2 -27 5 -17 2 9 2 25 0 35 -3 9 -5 1 -5 -18z"/>
<path d="M1206 1124 c-4 -9 -4 -19 -1 -22 2 -3 7 3 11 12 4 9 4 19 1 22 -2 3
-7 -3 -11 -12z"/>
<path d="M1602 1120 c0 -14 2 -19 5 -12 2 6 2 18 0 25 -3 6 -5 1 -5 -13z"/>
<path d="M1147 1114 c-4 -4 -7 -14 -7 -23 0 -11 3 -12 11 -4 6 6 10 16 7 23
-2 6 -7 8 -11 4z"/>
<path d="M1482 1090 c0 -14 2 -19 5 -12 2 6 2 18 0 25 -3 6 -5 1 -5 -13z"/>
<path d="M1380 1070 c0 -11 2 -20 4 -20 2 0 6 9 9 20 3 11 1 20 -4 20 -5 0 -9
-9 -9 -20z"/>
<path d="M1167 1057 c-11 -29 -9 -53 4 -40 6 6 9 21 7 34 -3 21 -4 22 -11 6z"/>
<path d="M1250 1050 c0 -11 5 -20 10 -20 6 0 10 9 10 20 0 11 -4 20 -10 20 -5
0 -10 -9 -10 -20z"/>
<path d="M1331 1044 c0 -11 3 -14 6 -6 3 7 2 16 -1 19 -3 4 -6 -2 -5 -13z"/>
<path d="M1431 1034 c0 -11 3 -14 6 -6 3 7 2 16 -1 19 -3 4 -6 -2 -5 -13z"/>
<path d="M1511 1014 c0 -11 3 -14 6 -6 3 7 2 16 -1 19 -3 4 -6 -2 -5 -13z"/>
<path d="M1611 1004 c0 -11 3 -14 6 -6 3 7 2 16 -1 19 -3 4 -6 -2 -5 -13z"/>
<path d="M1206 995 c4 -8 10 -15 15 -15 4 0 6 7 3 15 -4 8 -10 15 -15 15 -4 0
-6 -7 -3 -15z"/>
<path d="M1276 977 c3 -10 9 -15 12 -12 3 3 0 11 -7 18 -10 9 -11 8 -5 -6z"/>
<path d="M1352 960 c0 -14 2 -19 5 -12 2 6 2 18 0 25 -3 6 -5 1 -5 -13z"/>
<path d="M1462 960 c0 -14 2 -19 5 -12 2 6 2 18 0 25 -3 6 -5 1 -5 -13z"/>
<path d="M1180 949 c0 -11 4 -18 10 -14 5 3 7 12 3 20 -7 21 -13 19 -13 -6z"/>
<path d="M1400 961 c0 -5 5 -13 10 -16 6 -3 10 -2 10 4 0 5 -4 13 -10 16 -5 3
-10 2 -10 -4z"/>
<path d="M1541 944 c0 -11 3 -14 6 -6 3 7 2 16 -1 19 -3 4 -6 -2 -5 -13z"/>
<path d="M2016 945 c-9 -26 -7 -32 5 -12 6 10 9 21 6 23 -2 3 -7 -2 -11 -11z"/>
<path d="M1591 924 c0 -11 3 -14 6 -6 3 7 2 16 -1 19 -3 4 -6 -2 -5 -13z"/>
<path d="M1672 920 c0 -14 2 -19 5 -12 2 6 2 18 0 25 -3 6 -5 1 -5 -13z"/>
<path d="M1250 913 c0 -13 5 -23 10 -23 13 0 13 11 0 30 -8 12 -10 11 -10 -7z"/>
<path d="M1821 902 c-1 -27 -7 -29 -86 -41 -49 -7 -52 -9 -20 -9 22 0 72 8
110 19 39 10 56 16 38 14 -26 -4 -32 -1 -36 18 l-4 22 -2 -23z"/>
<path d="M1311 894 c0 -11 3 -14 6 -6 3 7 2 16 -1 19 -3 4 -6 -2 -5 -13z"/>
<path d="M1511 884 c0 -11 3 -14 6 -6 3 7 2 16 -1 19 -3 4 -6 -2 -5 -13z"/>
<path d="M1711 884 c0 -11 3 -14 6 -6 3 7 2 16 -1 19 -3 4 -6 -2 -5 -13z"/>
<path d="M1235 860 c3 -5 8 -10 11 -10 2 0 4 5 4 10 0 6 -5 10 -11 10 -5 0 -7
-4 -4 -10z"/>
<path d="M1990 860 c-17 -5 -19 -8 -7 -9 29 -2 20 -39 -15 -61 -39 -23 -30
-27 12 -5 29 15 35 25 30 54 -1 8 4 18 12 22 16 10 2 10 -32 -1z"/>
<path d="M1215 840 c3 -5 16 -10 28 -9 21 0 21 1 2 9 -28 12 -37 12 -30 0z"/>
<path d="M1855 830 c-96 -26 -132 -38 -118 -39 18 -1 196 40 213 50 26 15 -19
10 -95 -11z"/>
<path d="M1688 783 c6 -2 18 -2 25 0 6 3 1 5 -13 5 -14 0 -19 -2 -12 -5z"/>
<path d="M1588 773 c12 -2 32 -2 45 0 12 2 2 4 -23 4 -25 0 -35 -2 -22 -4z"/>
<path d="M1908 763 c7 -3 16 -2 19 1 4 3 -2 6 -13 5 -11 0 -14 -3 -6 -6z"/>
<path d="M1738 743 c12 -2 32 -2 45 0 12 2 2 4 -23 4 -25 0 -35 -2 -22 -4z"/>
<path d="M1760 396 c0 -2 27 -13 60 -25 64 -23 111 -69 132 -128 7 -18 15 -33
19 -33 15 0 -18 65 -54 106 -25 29 -55 49 -93 63 -56 22 -64 24 -64 17z"/>
<path d="M1998 293 c6 -2 18 -2 25 0 6 3 1 5 -13 5 -14 0 -19 -2 -12 -5z"/>
<path d="M1853 175 c0 -22 2 -30 4 -17 2 12 2 30 0 40 -3 9 -5 -1 -4 -23z"/>
</g>
</svg>
